<mxfile host="65bd71144e">
    <diagram id="A3qWTJxBf30MFO97emnY" name="Page-1">
        <mxGraphModel dx="1377" dy="1045" grid="1" gridSize="10" guides="1" tooltips="1" connect="1" arrows="1" fold="1" page="1" pageScale="1" pageWidth="850" pageHeight="1100" math="0" shadow="0">
            <root>
                <mxCell id="0"/>
                <mxCell id="1" parent="0"/>
                <mxCell id="2" value="" style="strokeWidth=1;shadow=0;dashed=0;align=center;html=1;shape=mxgraph.mockup.containers.browserWindow;rSize=0;strokeColor=#666666;strokeColor2=#008cff;strokeColor3=#c4c4c4;mainText=,;recursiveResize=0;" parent="1" vertex="1">
                    <mxGeometry x="10" y="10" width="830" height="600" as="geometry"/>
                </mxCell>
                <mxCell id="3" value="aut.dig" style="strokeWidth=1;shadow=0;dashed=0;align=center;html=1;shape=mxgraph.mockup.containers.anchor;fontSize=17;fontColor=#666666;align=left;" parent="2" vertex="1">
                    <mxGeometry x="60" y="12" width="110" height="26" as="geometry"/>
                </mxCell>
                <mxCell id="4" value="https://autorizacao.digital/process" style="strokeWidth=1;shadow=0;dashed=0;align=center;html=1;shape=mxgraph.mockup.containers.anchor;rSize=0;fontSize=17;fontColor=#666666;align=left;" parent="2" vertex="1">
                    <mxGeometry x="130" y="60" width="250" height="26" as="geometry"/>
                </mxCell>
                <mxCell id="20" value="&lt;b&gt;&lt;font style=&quot;font-size: 15px&quot;&gt;aut.dig&lt;/font&gt;&lt;/b&gt;" style="text;html=1;strokeColor=none;fillColor=none;align=center;verticalAlign=middle;whiteSpace=wrap;rounded=0;" parent="2" vertex="1">
                    <mxGeometry x="435" y="148" width="40" height="20" as="geometry"/>
                </mxCell>
                <mxCell id="98" value="&lt;span&gt;Lorem ipsum dolor sit amet, consectetur&amp;nbsp;&lt;/span&gt;Lorem ipsum dolor sit amet, consectetur Lorem ipsum dolor sit amet, consectetur Lorem ipsum dolor sit amet, consectetur Lorem ipsum dolor sit amet, consectetur Lorem ipsum dolor sit amet, consectetur Lorem ipsum dolor sit amet, consectetur Lorem ipsum dolor sit amet, consectetur Lorem ipsum dolor sit amet, consectetur&amp;nbsp;" style="text;spacingTop=-5;whiteSpace=wrap;html=1;align=center;fontSize=12;fontFamily=Helvetica;fillColor=none;strokeColor=none;" parent="2" vertex="1">
                    <mxGeometry x="40" y="517" width="740" height="46.25" as="geometry"/>
                </mxCell>
                <mxCell id="99" value="Contract" style="strokeWidth=1;shadow=0;dashed=0;align=center;html=1;shape=mxgraph.mockup.forms.comboBox;strokeColor=#999999;fillColor=#ddeeff;align=left;fillColor2=#aaddff;mainText=;fontColor=#666666;fontSize=17;spacingLeft=3;" parent="2" vertex="1">
                    <mxGeometry x="70" y="450" width="340" height="30" as="geometry"/>
                </mxCell>
                <mxCell id="97" value="" style="group" parent="2" vertex="1" connectable="0">
                    <mxGeometry x="65" y="200" width="700" height="220" as="geometry"/>
                </mxCell>
                <mxCell id="72" value="" style="rounded=1;whiteSpace=wrap;html=1;absoluteArcSize=1;arcSize=14;strokeWidth=1;" parent="97" vertex="1">
                    <mxGeometry width="160" height="220" as="geometry"/>
                </mxCell>
                <mxCell id="73" value="&lt;span style=&quot;font-weight: normal&quot;&gt;INVITATION&lt;/span&gt;" style="text;strokeColor=none;fillColor=none;html=1;fontSize=14;fontStyle=1;verticalAlign=middle;align=center;" parent="97" vertex="1">
                    <mxGeometry x="10.666666666666629" y="11.879999999999995" width="138.66666666666669" height="27.5" as="geometry"/>
                </mxCell>
                <mxCell id="74" value="&lt;div&gt;&lt;span&gt;Lorem ipsum dolor sit amet, consectetur&lt;/span&gt;&lt;/div&gt;" style="text;spacingTop=-5;whiteSpace=wrap;html=1;align=center;fontSize=12;fontFamily=Helvetica;fillColor=none;strokeColor=none;" parent="97" vertex="1">
                    <mxGeometry x="16" y="138.13" width="128" height="46.25" as="geometry"/>
                </mxCell>
                <mxCell id="75" value="" style="pointerEvents=1;shadow=0;dashed=0;html=1;strokeColor=#005700;labelPosition=center;verticalLabelPosition=bottom;verticalAlign=top;outlineConnect=0;align=center;shape=mxgraph.office.users.user_external;fontSize=14;fillColor=#008a00;fontColor=#ffffff;" parent="97" vertex="1">
                    <mxGeometry x="50.5" y="68.13" width="59" height="50" as="geometry"/>
                </mxCell>
                <mxCell id="76" value="" style="verticalLabelPosition=bottom;shadow=0;dashed=0;align=center;html=1;verticalAlign=top;strokeWidth=1;shape=mxgraph.mockup.navigation.pageControl;fillColor=#999999;strokeColor=#ddeeff;fontSize=14;" parent="97" vertex="1">
                    <mxGeometry x="30" y="178.1300000000001" width="100" height="30" as="geometry"/>
                </mxCell>
                <mxCell id="78" value="" style="rounded=1;whiteSpace=wrap;html=1;absoluteArcSize=1;arcSize=14;strokeWidth=1;" parent="97" vertex="1">
                    <mxGeometry x="180" width="160" height="220" as="geometry"/>
                </mxCell>
                <mxCell id="79" value="&lt;span style=&quot;font-weight: normal&quot;&gt;SIGNATURE&lt;/span&gt;" style="text;strokeColor=none;fillColor=none;html=1;fontSize=14;fontStyle=1;verticalAlign=middle;align=center;" parent="97" vertex="1">
                    <mxGeometry x="190.66666666666663" y="11.879999999999995" width="138.66666666666669" height="27.5" as="geometry"/>
                </mxCell>
                <mxCell id="80" value="&lt;div&gt;&lt;span&gt;Lorem ipsum dolor sit amet, consectetur&lt;/span&gt;&lt;/div&gt;" style="text;spacingTop=-5;whiteSpace=wrap;html=1;align=center;fontSize=12;fontFamily=Helvetica;fillColor=none;strokeColor=none;" parent="97" vertex="1">
                    <mxGeometry x="196" y="138.13" width="128" height="46.25" as="geometry"/>
                </mxCell>
                <mxCell id="82" value="" style="verticalLabelPosition=bottom;shadow=0;dashed=0;align=center;html=1;verticalAlign=top;strokeWidth=1;shape=mxgraph.mockup.navigation.pageControl;fillColor=#999999;strokeColor=#ddeeff;fontSize=14;" parent="97" vertex="1">
                    <mxGeometry x="210" y="178.1300000000001" width="100" height="30" as="geometry"/>
                </mxCell>
                <mxCell id="83" value="" style="rounded=1;whiteSpace=wrap;html=1;absoluteArcSize=1;arcSize=14;strokeWidth=1;" parent="97" vertex="1">
                    <mxGeometry x="360" width="160" height="220" as="geometry"/>
                </mxCell>
                <mxCell id="84" value="&lt;span style=&quot;font-weight: normal&quot;&gt;PAYMENT&lt;/span&gt;" style="text;strokeColor=none;fillColor=none;html=1;fontSize=14;fontStyle=1;verticalAlign=middle;align=center;" parent="97" vertex="1">
                    <mxGeometry x="370.66666666666663" y="11.879999999999995" width="138.66666666666669" height="27.5" as="geometry"/>
                </mxCell>
                <mxCell id="85" value="&lt;div&gt;&lt;span&gt;Lorem ipsum dolor sit amet, consectetur&lt;/span&gt;&lt;/div&gt;" style="text;spacingTop=-5;whiteSpace=wrap;html=1;align=center;fontSize=12;fontFamily=Helvetica;fillColor=none;strokeColor=none;" parent="97" vertex="1">
                    <mxGeometry x="376" y="138.13" width="128" height="46.25" as="geometry"/>
                </mxCell>
                <mxCell id="87" value="" style="verticalLabelPosition=bottom;shadow=0;dashed=0;align=center;html=1;verticalAlign=top;strokeWidth=1;shape=mxgraph.mockup.navigation.pageControl;fillColor=#999999;strokeColor=#ddeeff;fontSize=14;" parent="97" vertex="1">
                    <mxGeometry x="390" y="178.1300000000001" width="100" height="30" as="geometry"/>
                </mxCell>
                <mxCell id="88" value="" style="rounded=1;whiteSpace=wrap;html=1;absoluteArcSize=1;arcSize=14;strokeWidth=1;" parent="97" vertex="1">
                    <mxGeometry x="540" width="160" height="220" as="geometry"/>
                </mxCell>
                <mxCell id="89" value="&lt;span style=&quot;font-weight: normal&quot;&gt;AGREEMENT&lt;/span&gt;" style="text;strokeColor=none;fillColor=none;html=1;fontSize=14;fontStyle=1;verticalAlign=middle;align=center;" parent="97" vertex="1">
                    <mxGeometry x="550.6666666666666" y="11.879999999999995" width="138.66666666666669" height="27.5" as="geometry"/>
                </mxCell>
                <mxCell id="90" value="&lt;div&gt;&lt;span&gt;Lorem ipsum dolor sit amet, consectetur&lt;/span&gt;&lt;/div&gt;" style="text;spacingTop=-5;whiteSpace=wrap;html=1;align=center;fontSize=12;fontFamily=Helvetica;fillColor=none;strokeColor=none;" parent="97" vertex="1">
                    <mxGeometry x="556" y="138.13" width="128" height="46.25" as="geometry"/>
                </mxCell>
                <mxCell id="92" value="" style="verticalLabelPosition=bottom;shadow=0;dashed=0;align=center;html=1;verticalAlign=top;strokeWidth=1;shape=mxgraph.mockup.navigation.pageControl;fillColor=#999999;strokeColor=#ddeeff;fontSize=14;" parent="97" vertex="1">
                    <mxGeometry x="570" y="178.1300000000001" width="100" height="30" as="geometry"/>
                </mxCell>
                <mxCell id="94" value="" style="pointerEvents=1;shadow=0;dashed=0;html=1;strokeColor=none;labelPosition=center;verticalLabelPosition=bottom;verticalAlign=top;outlineConnect=0;align=center;shape=mxgraph.office.users.writer;fontSize=14;fillColor=#CCCC00;" parent="97" vertex="1">
                    <mxGeometry x="233" y="59.129999999999995" width="54" height="59" as="geometry"/>
                </mxCell>
                <mxCell id="95" value="" style="pointerEvents=1;shadow=0;dashed=0;html=1;strokeColor=#B20000;labelPosition=center;verticalLabelPosition=bottom;verticalAlign=top;outlineConnect=0;align=center;shape=mxgraph.office.services.verification_service;fontSize=14;fontColor=#ffffff;fillColor=#FF0000;" parent="97" vertex="1">
                    <mxGeometry x="411.5" y="59.129999999999995" width="57" height="59" as="geometry"/>
                </mxCell>
                <mxCell id="96" value="" style="pointerEvents=1;shadow=0;dashed=0;html=1;strokeColor=#B20000;labelPosition=center;verticalLabelPosition=bottom;verticalAlign=top;outlineConnect=0;align=center;shape=mxgraph.office.users.approver;fontSize=14;fontColor=#ffffff;fillColor=#FF0000;" parent="97" vertex="1">
                    <mxGeometry x="590.5" y="63.129999999999995" width="59" height="55" as="geometry"/>
                </mxCell>
                <mxCell id="100" value="Contract" style="strokeWidth=1;shadow=0;dashed=0;align=center;html=1;shape=mxgraph.mockup.forms.comboBox;strokeColor=#999999;fillColor=#ddeeff;align=left;fillColor2=#aaddff;mainText=;fontColor=#666666;fontSize=17;spacingLeft=3;" parent="1" vertex="1">
                    <mxGeometry x="440" y="460" width="340" height="30" as="geometry"/>
                </mxCell>
                <mxCell id="101" value="" style="shape=mxgraph.mockup.markup.scratchOut;shadow=0;dashed=0;html=1;strokeColor=#999999;strokeWidth=2;" vertex="1" parent="1">
                    <mxGeometry x="370" y="153" width="55" height="30" as="geometry"/>
                </mxCell>
            </root>
        </mxGraphModel>
    </diagram>
</mxfile>